<svg width="1024" height="753" viewBox="0 0 1024 753" fill="none" xmlns="http://www.w3.org/2000/svg">
<g clip-path="url(#clip0_122_130)">
<rect width="1024" height="753" fill="#121214"/>
<g opacity="0.2" filter="url(#filter0_f_122_130)">
<ellipse cx="534.5" cy="73" rx="670.5" ry="350" fill="#338AF3"/>
</g>
<path d="M55.0349 309C56.5302 309 57.6622 309.63 58.4308 310.891C59.2134 312.138 59.6047 313.953 59.6047 316.336C59.6047 318.719 59.2134 320.541 58.4308 321.802C57.6622 323.063 56.5302 323.693 55.0349 323.693C53.5536 323.693 52.4216 323.063 51.639 321.802C50.8564 320.541 50.4651 318.719 50.4651 316.336C50.4651 313.967 50.8564 312.152 51.639 310.891C52.4216 309.63 53.5536 309 55.0349 309ZM51.9534 316.336C51.9534 318.026 52.1072 319.35 52.4146 320.306L57.0683 311.099C56.5791 310.448 55.9013 310.122 55.0349 310.122C54.0706 310.122 53.316 310.635 52.771 311.66C52.2259 312.672 51.9534 314.23 51.9534 316.336ZM55.0349 322.55C56.0131 322.55 56.7748 322.044 57.3198 321.033C57.8648 320.008 58.1373 318.442 58.1373 316.336C58.1373 314.549 57.9627 313.163 57.6133 312.18L52.9596 321.469C53.4627 322.19 54.1545 322.55 55.0349 322.55Z" fill="url(#paint0_linear_122_130)" fill-opacity="0.6"/>
<path d="M56.2926 346.135H59.3741V347.236H51.3874V346.135H54.9511V334.455L51.5551 336.471L50.9682 335.536L55.1607 332.959H56.2926V346.135Z" fill="url(#paint1_linear_122_130)" fill-opacity="0.6"/>
<path d="M55.0349 356.502C56.5302 356.502 57.6622 357.133 58.4308 358.393C59.2134 359.64 59.6047 361.455 59.6047 363.838C59.6047 366.221 59.2134 368.043 58.4308 369.304C57.6622 370.565 56.5302 371.195 55.0349 371.195C53.5536 371.195 52.4216 370.565 51.639 369.304C50.8564 368.043 50.4651 366.221 50.4651 363.838C50.4651 361.469 50.8564 359.654 51.639 358.393C52.4216 357.133 53.5536 356.502 55.0349 356.502ZM51.9534 363.838C51.9534 365.529 52.1072 366.852 52.4146 367.808L57.0683 358.601C56.5791 357.95 55.9013 357.624 55.0349 357.624C54.0706 357.624 53.316 358.137 52.771 359.162C52.2259 360.174 51.9534 361.732 51.9534 363.838ZM55.0349 370.052C56.0131 370.052 56.7748 369.546 57.3198 368.535C57.8648 367.51 58.1373 365.944 58.1373 363.838C58.1373 362.051 57.9627 360.665 57.6133 359.682L52.9596 368.971C53.4627 369.692 54.1545 370.052 55.0349 370.052Z" fill="url(#paint2_linear_122_130)" fill-opacity="0.6"/>
<path d="M56.2926 393.637H59.3741V394.738H51.3874V393.637H54.9511V381.957L51.5551 383.973L50.9682 383.038L55.1607 380.461H56.2926V393.637Z" fill="url(#paint3_linear_122_130)" fill-opacity="0.6"/>
<path d="M56.2926 417.388H59.3741V418.489H51.3874V417.388H54.9511V405.708L51.5551 407.724L50.9682 406.789L55.1607 404.212H56.2926V417.388Z" fill="url(#paint4_linear_122_130)" fill-opacity="0.6"/>
<path d="M55.0349 427.755C56.5302 427.755 57.6622 428.386 58.4308 429.646C59.2134 430.893 59.6047 432.708 59.6047 435.091C59.6047 437.474 59.2134 439.296 58.4308 440.557C57.6622 441.818 56.5302 442.448 55.0349 442.448C53.5536 442.448 52.4216 441.818 51.639 440.557C50.8564 439.296 50.4651 437.474 50.4651 435.091C50.4651 432.722 50.8564 430.907 51.639 429.646C52.4216 428.386 53.5536 427.755 55.0349 427.755ZM51.9534 435.091C51.9534 436.782 52.1072 438.105 52.4146 439.061L57.0683 429.854C56.5791 429.203 55.9013 428.878 55.0349 428.878C54.0706 428.878 53.316 429.39 52.771 430.415C52.2259 431.427 51.9534 432.985 51.9534 435.091ZM55.0349 441.305C56.0131 441.305 56.7748 440.8 57.3198 439.788C57.8648 438.763 58.1373 437.197 58.1373 435.091C58.1373 433.304 57.9627 431.919 57.6133 430.935L52.9596 440.225C53.4627 440.945 54.1545 441.305 55.0349 441.305Z" fill="url(#paint5_linear_122_130)" fill-opacity="0.6"/>
<path d="M56.2926 464.89H59.3741V465.992H51.3874V464.89H54.9511V453.21L51.5551 455.226L50.9682 454.291L55.1607 451.714H56.2926V464.89Z" fill="url(#paint6_linear_122_130)" fill-opacity="0.6"/>
<path d="M55.0349 475.257C56.5302 475.257 57.6622 475.888 58.4308 477.149C59.2134 478.396 59.6047 480.211 59.6047 482.594C59.6047 484.977 59.2134 486.798 58.4308 488.059C57.6622 489.32 56.5302 489.95 55.0349 489.95C53.5536 489.95 52.4216 489.32 51.639 488.059C50.8564 486.798 50.4651 484.977 50.4651 482.594C50.4651 480.224 50.8564 478.409 51.639 477.149C52.4216 475.888 53.5536 475.257 55.0349 475.257ZM51.9534 482.594C51.9534 484.284 52.1072 485.607 52.4146 486.563L57.0683 477.356C56.5791 476.705 55.9013 476.38 55.0349 476.38C54.0706 476.38 53.316 476.892 52.771 477.918C52.2259 478.929 51.9534 480.488 51.9534 482.594ZM55.0349 488.807C56.0131 488.807 56.7748 488.302 57.3198 487.29C57.8648 486.265 58.1373 484.699 58.1373 482.594C58.1373 480.806 57.9627 479.421 57.6133 478.437L52.9596 487.727C53.4627 488.447 54.1545 488.807 55.0349 488.807Z" fill="url(#paint7_linear_122_130)" fill-opacity="0.6"/>
<path d="M55.0349 499.008C56.5302 499.008 57.6622 499.639 58.4308 500.9C59.2134 502.147 59.6047 503.962 59.6047 506.345C59.6047 508.728 59.2134 510.549 58.4308 511.81C57.6622 513.071 56.5302 513.701 55.0349 513.701C53.5536 513.701 52.4216 513.071 51.639 511.81C50.8564 510.549 50.4651 508.728 50.4651 506.345C50.4651 503.975 50.8564 502.16 51.639 500.9C52.4216 499.639 53.5536 499.008 55.0349 499.008ZM51.9534 506.345C51.9534 508.035 52.1072 509.358 52.4146 510.314L57.0683 501.107C56.5791 500.456 55.9013 500.131 55.0349 500.131C54.0706 500.131 53.316 500.643 52.771 501.669C52.2259 502.68 51.9534 504.239 51.9534 506.345ZM55.0349 512.558C56.0131 512.558 56.7748 512.053 57.3198 511.041C57.8648 510.016 58.1373 508.451 58.1373 506.345C58.1373 504.557 57.9627 503.172 57.6133 502.188L52.9596 511.478C53.4627 512.198 54.1545 512.558 55.0349 512.558Z" fill="url(#paint8_linear_122_130)" fill-opacity="0.6"/>
<path d="M56.2926 536.143H59.3741V537.245H51.3874V536.143H54.9511V524.464L51.5551 526.48L50.9682 525.544L55.1607 522.967H56.2926V536.143Z" fill="url(#paint9_linear_122_130)" fill-opacity="0.6"/>
<path d="M55.0349 546.511C56.5302 546.511 57.6622 547.141 58.4308 548.402C59.2134 549.649 59.6047 551.464 59.6047 553.847C59.6047 556.23 59.2134 558.052 58.4308 559.312C57.6622 560.573 56.5302 561.204 55.0349 561.204C53.5536 561.204 52.4216 560.573 51.639 559.312C50.8564 558.052 50.4651 556.23 50.4651 553.847C50.4651 551.478 50.8564 549.663 51.639 548.402C52.4216 547.141 53.5536 546.511 55.0349 546.511ZM51.9534 553.847C51.9534 555.537 52.1072 556.86 52.4146 557.816L57.0683 548.61C56.5791 547.958 55.9013 547.633 55.0349 547.633C54.0706 547.633 53.316 548.145 52.771 549.171C52.2259 550.182 51.9534 551.741 51.9534 553.847ZM55.0349 560.061C56.0131 560.061 56.7748 559.555 57.3198 558.543C57.8648 557.518 58.1373 555.953 58.1373 553.847C58.1373 552.059 57.9627 550.674 57.6133 549.69L52.9596 558.98C53.4627 559.7 54.1545 560.061 55.0349 560.061Z" fill="url(#paint10_linear_122_130)" fill-opacity="0.6"/>
<path d="M56.2926 583.645H59.3741V584.747H51.3874V583.645H54.9511V571.966L51.5551 573.982L50.9682 573.046L55.1607 570.469H56.2926V583.645Z" fill="url(#paint11_linear_122_130)" fill-opacity="0.6"/>
<path d="M56.2926 607.396H59.3741V608.498H51.3874V607.396H54.9511V595.717L51.5551 597.733L50.9682 596.798L55.1607 594.221H56.2926V607.396Z" fill="url(#paint12_linear_122_130)" fill-opacity="0.6"/>
<path d="M93.9651 356.502C95.4604 356.502 96.5924 357.133 97.361 358.393C98.1436 359.64 98.5349 361.455 98.5349 363.838C98.5349 366.221 98.1436 368.043 97.361 369.304C96.5924 370.565 95.4604 371.195 93.9651 371.195C92.4838 371.195 91.3518 370.565 90.5692 369.304C89.7866 368.043 89.3953 366.221 89.3953 363.838C89.3953 361.469 89.7866 359.654 90.5692 358.393C91.3518 357.133 92.4838 356.502 93.9651 356.502ZM90.8836 363.838C90.8836 365.529 91.0374 366.852 91.3448 367.808L95.9985 358.601C95.5093 357.95 94.8315 357.624 93.9651 357.624C93.0008 357.624 92.2462 358.137 91.7012 359.162C91.1561 360.174 90.8836 361.732 90.8836 363.838ZM93.9651 370.052C94.9433 370.052 95.705 369.546 96.25 368.535C96.795 367.51 97.0675 365.944 97.0675 363.838C97.0675 362.051 96.8928 360.665 96.5435 359.682L91.8898 368.971C92.3929 369.692 93.0847 370.052 93.9651 370.052Z" fill="url(#paint13_linear_122_130)" fill-opacity="0.6"/>
<path d="M95.2228 393.637H98.3043V394.738H90.3176V393.637H93.8812V381.957L90.4853 383.973L89.8984 383.038L94.0909 380.461H95.2228V393.637Z" fill="url(#paint14_linear_122_130)" fill-opacity="0.6"/>
<path d="M93.9651 404.004C95.4604 404.004 96.5924 404.635 97.361 405.895C98.1436 407.142 98.5349 408.957 98.5349 411.34C98.5349 413.723 98.1436 415.545 97.361 416.806C96.5924 418.067 95.4604 418.697 93.9651 418.697C92.4838 418.697 91.3518 418.067 90.5692 416.806C89.7866 415.545 89.3953 413.723 89.3953 411.34C89.3953 408.971 89.7866 407.156 90.5692 405.895C91.3518 404.635 92.4838 404.004 93.9651 404.004ZM90.8836 411.34C90.8836 413.031 91.0374 414.354 91.3448 415.31L95.9985 406.103C95.5093 405.452 94.8315 405.126 93.9651 405.126C93.0008 405.126 92.2462 405.639 91.7012 406.664C91.1561 407.676 90.8836 409.234 90.8836 411.34ZM93.9651 417.554C94.9433 417.554 95.705 417.049 96.25 416.037C96.795 415.012 97.0675 413.446 97.0675 411.34C97.0675 409.553 96.8928 408.168 96.5435 407.184L91.8898 416.474C92.3929 417.194 93.0847 417.554 93.9651 417.554Z" fill="url(#paint15_linear_122_130)" fill-opacity="0.6"/>
<path d="M93.9651 427.755C95.4604 427.755 96.5924 428.386 97.361 429.646C98.1436 430.893 98.5349 432.708 98.5349 435.091C98.5349 437.474 98.1436 439.296 97.361 440.557C96.5924 441.818 95.4604 442.448 93.9651 442.448C92.4838 442.448 91.3518 441.818 90.5692 440.557C89.7866 439.296 89.3953 437.474 89.3953 435.091C89.3953 432.722 89.7866 430.907 90.5692 429.646C91.3518 428.386 92.4838 427.755 93.9651 427.755ZM90.8836 435.091C90.8836 436.782 91.0374 438.105 91.3448 439.061L95.9985 429.854C95.5093 429.203 94.8315 428.878 93.9651 428.878C93.0008 428.878 92.2462 429.39 91.7012 430.415C91.1561 431.427 90.8836 432.985 90.8836 435.091ZM93.9651 441.305C94.9433 441.305 95.705 440.8 96.25 439.788C96.795 438.763 97.0675 437.197 97.0675 435.091C97.0675 433.304 96.8928 431.919 96.5435 430.935L91.8898 440.225C92.3929 440.945 93.0847 441.305 93.9651 441.305Z" fill="url(#paint16_linear_122_130)" fill-opacity="0.6"/>
<path d="M95.2228 464.89H98.3043V465.992H90.3176V464.89H93.8812V453.21L90.4853 455.226L89.8984 454.291L94.0909 451.714H95.2228V464.89Z" fill="url(#paint17_linear_122_130)" fill-opacity="0.6"/>
<path d="M93.9651 475.257C95.4604 475.257 96.5924 475.888 97.361 477.149C98.1436 478.396 98.5349 480.211 98.5349 482.594C98.5349 484.977 98.1436 486.798 97.361 488.059C96.5924 489.32 95.4604 489.95 93.9651 489.95C92.4838 489.95 91.3518 489.32 90.5692 488.059C89.7866 486.798 89.3953 484.977 89.3953 482.594C89.3953 480.224 89.7866 478.409 90.5692 477.149C91.3518 475.888 92.4838 475.257 93.9651 475.257ZM90.8836 482.594C90.8836 484.284 91.0374 485.607 91.3448 486.563L95.9985 477.356C95.5093 476.705 94.8315 476.38 93.9651 476.38C93.0008 476.38 92.2462 476.892 91.7012 477.918C91.1561 478.929 90.8836 480.488 90.8836 482.594ZM93.9651 488.807C94.9433 488.807 95.705 488.302 96.25 487.29C96.795 486.265 97.0675 484.699 97.0675 482.594C97.0675 480.806 96.8928 479.421 96.5435 478.437L91.8898 487.727C92.3929 488.447 93.0847 488.807 93.9651 488.807Z" fill="url(#paint18_linear_122_130)" fill-opacity="0.6"/>
<path d="M95.2228 512.392H98.3043V513.494H90.3176V512.392H93.8812V500.713L90.4853 502.728L89.8984 501.793L94.0909 499.216H95.2228V512.392Z" fill="url(#paint19_linear_122_130)" fill-opacity="0.6"/>
<path d="M93.9651 522.76C95.4604 522.76 96.5924 523.39 97.361 524.651C98.1436 525.898 98.5349 527.713 98.5349 530.096C98.5349 532.479 98.1436 534.301 97.361 535.561C96.5924 536.822 95.4604 537.453 93.9651 537.453C92.4838 537.453 91.3518 536.822 90.5692 535.561C89.7866 534.301 89.3953 532.479 89.3953 530.096C89.3953 527.726 89.7866 525.911 90.5692 524.651C91.3518 523.39 92.4838 522.76 93.9651 522.76ZM90.8836 530.096C90.8836 531.786 91.0374 533.109 91.3448 534.065L95.9985 524.859C95.5093 524.207 94.8315 523.882 93.9651 523.882C93.0008 523.882 92.2462 524.394 91.7012 525.42C91.1561 526.431 90.8836 527.99 90.8836 530.096ZM93.9651 536.31C94.9433 536.31 95.705 535.804 96.25 534.792C96.795 533.767 97.0675 532.202 97.0675 530.096C97.0675 528.308 96.8928 526.923 96.5435 525.939L91.8898 535.229C92.3929 535.949 93.0847 536.31 93.9651 536.31Z" fill="url(#paint20_linear_122_130)" fill-opacity="0.6"/>
<path d="M93.9651 546.511C95.4604 546.511 96.5924 547.141 97.361 548.402C98.1436 549.649 98.5349 551.464 98.5349 553.847C98.5349 556.23 98.1436 558.052 97.361 559.312C96.5924 560.573 95.4604 561.204 93.9651 561.204C92.4838 561.204 91.3518 560.573 90.5692 559.312C89.7866 558.052 89.3953 556.23 89.3953 553.847C89.3953 551.478 89.7866 549.663 90.5692 548.402C91.3518 547.141 92.4838 546.511 93.9651 546.511ZM90.8836 553.847C90.8836 555.537 91.0374 556.86 91.3448 557.816L95.9985 548.61C95.5093 547.958 94.8315 547.633 93.9651 547.633C93.0008 547.633 92.2462 548.145 91.7012 549.171C91.1561 550.182 90.8836 551.741 90.8836 553.847ZM93.9651 560.061C94.9433 560.061 95.705 559.555 96.25 558.543C96.795 557.518 97.0675 555.953 97.0675 553.847C97.0675 552.059 96.8928 550.674 96.5435 549.69L91.8898 558.98C92.3929 559.7 93.0847 560.061 93.9651 560.061Z" fill="url(#paint21_linear_122_130)" fill-opacity="0.6"/>
<path d="M95.2228 583.645H98.3043V584.747H90.3176V583.645H93.8812V571.966L90.4853 573.982L89.8984 573.046L94.0909 570.469H95.2228V583.645Z" fill="url(#paint22_linear_122_130)" fill-opacity="0.6"/>
<path d="M93.9651 594.013C95.4604 594.013 96.5924 594.643 97.361 595.904C98.1436 597.151 98.5349 598.966 98.5349 601.349C98.5349 603.732 98.1436 605.554 97.361 606.815C96.5924 608.075 95.4604 608.706 93.9651 608.706C92.4838 608.706 91.3518 608.075 90.5692 606.815C89.7866 605.554 89.3953 603.732 89.3953 601.349C89.3953 598.98 89.7866 597.165 90.5692 595.904C91.3518 594.643 92.4838 594.013 93.9651 594.013ZM90.8836 601.349C90.8836 603.039 91.0374 604.362 91.3448 605.318L95.9985 596.112C95.5093 595.461 94.8315 595.135 93.9651 595.135C93.0008 595.135 92.2462 595.648 91.7012 596.673C91.1561 597.684 90.8836 599.243 90.8836 601.349ZM93.9651 607.563C94.9433 607.563 95.705 607.057 96.25 606.046C96.795 605.02 97.0675 603.455 97.0675 601.349C97.0675 599.562 96.8928 598.176 96.5435 597.192L91.8898 606.482C92.3929 607.202 93.0847 607.563 93.9651 607.563Z" fill="url(#paint23_linear_122_130)" fill-opacity="0.6"/>
<path d="M95.2228 631.147H98.3043V632.249H90.3176V631.147H93.8812V619.468L90.4853 621.484L89.8984 620.549L94.0909 617.972H95.2228V631.147Z" fill="url(#paint24_linear_122_130)" fill-opacity="0.6"/>
<path d="M95.2228 654.899H98.3043V656H90.3176V654.899H93.8812V643.219L90.4853 645.235L89.8984 644.3L94.0909 641.723H95.2228V654.899Z" fill="url(#paint25_linear_122_130)" fill-opacity="0.6"/>
<path d="M35.5698 380.253C37.0651 380.253 38.1971 380.884 38.9657 382.144C39.7483 383.391 40.1396 385.206 40.1396 387.589C40.1396 389.972 39.7483 391.794 38.9657 393.055C38.1971 394.316 37.0651 394.946 35.5698 394.946C34.0885 394.946 32.9565 394.316 32.1739 393.055C31.3913 391.794 31 389.972 31 387.589C31 385.22 31.3913 383.405 32.1739 382.144C32.9565 380.884 34.0885 380.253 35.5698 380.253ZM32.4883 387.589C32.4883 389.28 32.6421 390.603 32.9495 391.559L37.6032 382.352C37.114 381.701 36.4363 381.375 35.5698 381.375C34.6055 381.375 33.8509 381.888 33.3059 382.913C32.7608 383.925 32.4883 385.483 32.4883 387.589ZM35.5698 393.803C36.5481 393.803 37.3097 393.297 37.8547 392.286C38.3997 391.261 38.6722 389.695 38.6722 387.589C38.6722 385.802 38.4976 384.417 38.1482 383.433L33.4945 392.722C33.9976 393.443 34.6894 393.803 35.5698 393.803Z" fill="url(#paint26_linear_122_130)" fill-opacity="0.6"/>
<path d="M35.5698 404.004C37.0651 404.004 38.1971 404.635 38.9657 405.895C39.7483 407.142 40.1396 408.957 40.1396 411.34C40.1396 413.723 39.7483 415.545 38.9657 416.806C38.1971 418.067 37.0651 418.697 35.5698 418.697C34.0885 418.697 32.9565 418.067 32.1739 416.806C31.3913 415.545 31 413.723 31 411.34C31 408.971 31.3913 407.156 32.1739 405.895C32.9565 404.635 34.0885 404.004 35.5698 404.004ZM32.4883 411.34C32.4883 413.031 32.6421 414.354 32.9495 415.31L37.6032 406.103C37.114 405.452 36.4363 405.126 35.5698 405.126C34.6055 405.126 33.8509 405.639 33.3059 406.664C32.7608 407.676 32.4883 409.234 32.4883 411.34ZM35.5698 417.554C36.5481 417.554 37.3097 417.049 37.8547 416.037C38.3997 415.012 38.6722 413.446 38.6722 411.34C38.6722 409.553 38.4976 408.168 38.1482 407.184L33.4945 416.474C33.9976 417.194 34.6894 417.554 35.5698 417.554Z" fill="url(#paint27_linear_122_130)" fill-opacity="0.6"/>
<path d="M36.8276 441.139H39.909V442.24H31.9223V441.139H35.486V429.459L32.09 431.475L31.5031 430.54L35.6956 427.963H36.8276V441.139Z" fill="url(#paint28_linear_122_130)" fill-opacity="0.6"/>
<path d="M35.5698 451.506C37.0651 451.506 38.1971 452.137 38.9657 453.398C39.7483 454.644 40.1396 456.459 40.1396 458.842C40.1396 461.225 39.7483 463.047 38.9657 464.308C38.1971 465.569 37.0651 466.199 35.5698 466.199C34.0885 466.199 32.9565 465.569 32.1739 464.308C31.3913 463.047 31 461.225 31 458.842C31 456.473 31.3913 454.658 32.1739 453.398C32.9565 452.137 34.0885 451.506 35.5698 451.506ZM32.4883 458.842C32.4883 460.533 32.6421 461.856 32.9495 462.812L37.6032 453.605C37.114 452.954 36.4363 452.629 35.5698 452.629C34.6055 452.629 33.8509 453.141 33.3059 454.166C32.7608 455.178 32.4883 456.737 32.4883 458.842ZM35.5698 465.056C36.5481 465.056 37.3097 464.551 37.8547 463.539C38.3997 462.514 38.6722 460.948 38.6722 458.842C38.6722 457.055 38.4976 455.67 38.1482 454.686L33.4945 463.976C33.9976 464.696 34.6894 465.056 35.5698 465.056Z" fill="url(#paint29_linear_122_130)" fill-opacity="0.6"/>
<path d="M36.8276 488.641H39.909V489.743H31.9223V488.641H35.486V476.962L32.09 478.977L31.5031 478.042L35.6956 475.465H36.8276V488.641Z" fill="url(#paint30_linear_122_130)" fill-opacity="0.6"/>
<path d="M36.8276 512.392H39.909V513.494H31.9223V512.392H35.486V500.713L32.09 502.728L31.5031 501.793L35.6956 499.216H36.8276V512.392Z" fill="url(#paint31_linear_122_130)" fill-opacity="0.6"/>
<path d="M75.7577 346.135H78.8392V347.236H70.8525V346.135H74.4162V334.455L71.0202 336.471L70.4333 335.536L74.6258 332.959H75.7577V346.135Z" fill="url(#paint32_linear_122_130)" fill-opacity="0.6"/>
<path d="M74.5 356.502C75.9953 356.502 77.1273 357.133 77.8959 358.393C78.6785 359.64 79.0698 361.455 79.0698 363.838C79.0698 366.221 78.6785 368.043 77.8959 369.304C77.1273 370.565 75.9953 371.195 74.5 371.195C73.0187 371.195 71.8867 370.565 71.1041 369.304C70.3215 368.043 69.9302 366.221 69.9302 363.838C69.9302 361.469 70.3215 359.654 71.1041 358.393C71.8867 357.133 73.0187 356.502 74.5 356.502ZM71.4185 363.838C71.4185 365.529 71.5723 366.852 71.8797 367.808L76.5334 358.601C76.0442 357.95 75.3664 357.624 74.5 357.624C73.5357 357.624 72.7811 358.137 72.2361 359.162C71.691 360.174 71.4185 361.732 71.4185 363.838ZM74.5 370.052C75.4782 370.052 76.2399 369.546 76.7849 368.535C77.3299 367.51 77.6024 365.944 77.6024 363.838C77.6024 362.051 77.4277 360.665 77.0784 359.682L72.4247 368.971C72.9278 369.692 73.6196 370.052 74.5 370.052Z" fill="url(#paint33_linear_122_130)" fill-opacity="0.6"/>
<path d="M75.7577 393.637H78.8392V394.738H70.8525V393.637H74.4162V381.957L71.0202 383.973L70.4333 383.038L74.6258 380.461H75.7577V393.637Z" fill="url(#paint34_linear_122_130)" fill-opacity="0.6"/>
<path d="M75.7577 417.388H78.8392V418.489H70.8525V417.388H74.4162V405.708L71.0202 407.724L70.4333 406.789L74.6258 404.212H75.7577V417.388Z" fill="url(#paint35_linear_122_130)" fill-opacity="0.6"/>
<path d="M74.5 427.755C75.9953 427.755 77.1273 428.386 77.8959 429.646C78.6785 430.893 79.0698 432.708 79.0698 435.091C79.0698 437.474 78.6785 439.296 77.8959 440.557C77.1273 441.818 75.9953 442.448 74.5 442.448C73.0187 442.448 71.8867 441.818 71.1041 440.557C70.3215 439.296 69.9302 437.474 69.9302 435.091C69.9302 432.722 70.3215 430.907 71.1041 429.646C71.8867 428.386 73.0187 427.755 74.5 427.755ZM71.4185 435.091C71.4185 436.782 71.5723 438.105 71.8797 439.061L76.5334 429.854C76.0442 429.203 75.3664 428.878 74.5 428.878C73.5357 428.878 72.7811 429.39 72.2361 430.415C71.691 431.427 71.4185 432.985 71.4185 435.091ZM74.5 441.305C75.4782 441.305 76.2399 440.8 76.7849 439.788C77.3299 438.763 77.6024 437.197 77.6024 435.091C77.6024 433.304 77.4277 431.919 77.0784 430.935L72.4247 440.225C72.9278 440.945 73.6196 441.305 74.5 441.305Z" fill="url(#paint36_linear_122_130)" fill-opacity="0.6"/>
<path d="M75.7577 464.89H78.8392V465.992H70.8525V464.89H74.4162V453.21L71.0202 455.226L70.4333 454.291L74.6258 451.714H75.7577V464.89Z" fill="url(#paint37_linear_122_130)" fill-opacity="0.6"/>
<path d="M75.7577 488.641H78.8392V489.743H70.8525V488.641H74.4162V476.962L71.0202 478.977L70.4333 478.042L74.6258 475.465H75.7577V488.641Z" fill="url(#paint38_linear_122_130)" fill-opacity="0.6"/>
<path d="M74.5 499.008C75.9953 499.008 77.1273 499.639 77.8959 500.9C78.6785 502.147 79.0698 503.962 79.0698 506.345C79.0698 508.728 78.6785 510.549 77.8959 511.81C77.1273 513.071 75.9953 513.701 74.5 513.701C73.0187 513.701 71.8867 513.071 71.1041 511.81C70.3215 510.549 69.9302 508.728 69.9302 506.345C69.9302 503.975 70.3215 502.16 71.1041 500.9C71.8867 499.639 73.0187 499.008 74.5 499.008ZM71.4185 506.345C71.4185 508.035 71.5723 509.358 71.8797 510.314L76.5334 501.107C76.0442 500.456 75.3664 500.131 74.5 500.131C73.5357 500.131 72.7811 500.643 72.2361 501.669C71.691 502.68 71.4185 504.239 71.4185 506.345ZM74.5 512.558C75.4782 512.558 76.2399 512.053 76.7849 511.041C77.3299 510.016 77.6024 508.451 77.6024 506.345C77.6024 504.557 77.4277 503.172 77.0784 502.188L72.4247 511.478C72.9278 512.198 73.6196 512.558 74.5 512.558Z" fill="url(#paint39_linear_122_130)" fill-opacity="0.6"/>
<path d="M75.7577 536.143H78.8392V537.245H70.8525V536.143H74.4162V524.464L71.0202 526.48L70.4333 525.544L74.6258 522.967H75.7577V536.143Z" fill="url(#paint40_linear_122_130)" fill-opacity="0.6"/>
<path d="M74.5 546.511C75.9953 546.511 77.1273 547.141 77.8959 548.402C78.6785 549.649 79.0698 551.464 79.0698 553.847C79.0698 556.23 78.6785 558.052 77.8959 559.312C77.1273 560.573 75.9953 561.204 74.5 561.204C73.0187 561.204 71.8867 560.573 71.1041 559.312C70.3215 558.052 69.9302 556.23 69.9302 553.847C69.9302 551.478 70.3215 549.663 71.1041 548.402C71.8867 547.141 73.0187 546.511 74.5 546.511ZM71.4185 553.847C71.4185 555.537 71.5723 556.86 71.8797 557.816L76.5334 548.61C76.0442 547.958 75.3664 547.633 74.5 547.633C73.5357 547.633 72.7811 548.145 72.2361 549.171C71.691 550.182 71.4185 551.741 71.4185 553.847ZM74.5 560.061C75.4782 560.061 76.2399 559.555 76.7849 558.543C77.3299 557.518 77.6024 555.953 77.6024 553.847C77.6024 552.059 77.4277 550.674 77.0784 549.69L72.4247 558.98C72.9278 559.7 73.6196 560.061 74.5 560.061Z" fill="url(#paint41_linear_122_130)" fill-opacity="0.6"/>
<path d="M113.43 332.751C114.926 332.751 116.057 333.381 116.826 334.642C117.609 335.889 118 337.704 118 340.087C118 342.47 117.609 344.292 116.826 345.553C116.057 346.814 114.926 347.444 113.43 347.444C111.949 347.444 110.817 346.814 110.034 345.553C109.252 344.292 108.86 342.47 108.86 340.087C108.86 337.718 109.252 335.903 110.034 334.642C110.817 333.381 111.949 332.751 113.43 332.751ZM110.349 340.087C110.349 341.777 110.502 343.101 110.81 344.057L115.464 334.85C114.974 334.199 114.297 333.873 113.43 333.873C112.466 333.873 111.711 334.386 111.166 335.411C110.621 336.423 110.349 337.981 110.349 340.087ZM113.43 346.301C114.408 346.301 115.17 345.795 115.715 344.784C116.26 343.759 116.533 342.193 116.533 340.087C116.533 338.3 116.358 336.914 116.009 335.931L111.355 345.22C111.858 345.941 112.55 346.301 113.43 346.301Z" fill="url(#paint42_linear_122_130)" fill-opacity="0.6"/>
<path d="M114.688 369.886H117.769V370.987H109.783V369.886H113.346V358.206L109.95 360.222L109.363 359.287L113.556 356.71H114.688V369.886Z" fill="url(#paint43_linear_122_130)" fill-opacity="0.6"/>
<path d="M114.688 393.637H117.769V394.738H109.783V393.637H113.346V381.957L109.95 383.973L109.363 383.038L113.556 380.461H114.688V393.637Z" fill="url(#paint44_linear_122_130)" fill-opacity="0.6"/>
<path d="M113.43 404.004C114.926 404.004 116.057 404.635 116.826 405.895C117.609 407.142 118 408.957 118 411.34C118 413.723 117.609 415.545 116.826 416.806C116.057 418.067 114.926 418.697 113.43 418.697C111.949 418.697 110.817 418.067 110.034 416.806C109.252 415.545 108.86 413.723 108.86 411.34C108.86 408.971 109.252 407.156 110.034 405.895C110.817 404.635 111.949 404.004 113.43 404.004ZM110.349 411.34C110.349 413.031 110.502 414.354 110.81 415.31L115.464 406.103C114.974 405.452 114.297 405.126 113.43 405.126C112.466 405.126 111.711 405.639 111.166 406.664C110.621 407.676 110.349 409.234 110.349 411.34ZM113.43 417.554C114.408 417.554 115.17 417.049 115.715 416.037C116.26 415.012 116.533 413.446 116.533 411.34C116.533 409.553 116.358 408.168 116.009 407.184L111.355 416.474C111.858 417.194 112.55 417.554 113.43 417.554Z" fill="url(#paint45_linear_122_130)" fill-opacity="0.6"/>
<path d="M113.43 427.755C114.926 427.755 116.057 428.386 116.826 429.646C117.609 430.893 118 432.708 118 435.091C118 437.474 117.609 439.296 116.826 440.557C116.057 441.818 114.926 442.448 113.43 442.448C111.949 442.448 110.817 441.818 110.034 440.557C109.252 439.296 108.86 437.474 108.86 435.091C108.86 432.722 109.252 430.907 110.034 429.646C110.817 428.386 111.949 427.755 113.43 427.755ZM110.349 435.091C110.349 436.782 110.502 438.105 110.81 439.061L115.464 429.854C114.974 429.203 114.297 428.878 113.43 428.878C112.466 428.878 111.711 429.39 111.166 430.415C110.621 431.427 110.349 432.985 110.349 435.091ZM113.43 441.305C114.408 441.305 115.17 440.8 115.715 439.788C116.26 438.763 116.533 437.197 116.533 435.091C116.533 433.304 116.358 431.919 116.009 430.935L111.355 440.225C111.858 440.945 112.55 441.305 113.43 441.305Z" fill="url(#paint46_linear_122_130)" fill-opacity="0.6"/>
<g opacity="0.6">
<path d="M941.93 9C943.356 9 944.436 9.60496 945.17 10.8149C945.916 12.0115 946.29 13.7532 946.29 16.0401C946.29 18.327 945.916 20.0754 945.17 21.2853C944.436 22.4952 943.356 23.1002 941.93 23.1002C940.517 23.1002 939.437 22.4952 938.69 21.2853C937.943 20.0754 937.57 18.327 937.57 16.0401C937.57 13.7665 937.943 12.0248 938.69 10.8149C939.437 9.60496 940.517 9 941.93 9ZM938.99 16.0401C938.99 17.6622 939.137 18.932 939.43 19.8494L943.87 11.0143C943.403 10.3894 942.756 10.077 941.93 10.077C941.01 10.077 940.29 10.5689 939.77 11.5528C939.25 12.5234 938.99 14.0192 938.99 16.0401ZM941.93 22.0033C942.863 22.0033 943.59 21.518 944.11 20.5474C944.63 19.5635 944.89 18.0611 944.89 16.0401C944.89 14.325 944.723 12.9954 944.39 12.0514L939.95 20.9662C940.43 21.6576 941.09 22.0033 941.93 22.0033Z" fill="url(#paint47_linear_122_130)"/>
<path d="M943.13 44.6365H946.07V45.6936H938.45V44.6365H941.85V33.4282L938.61 35.3627L938.05 34.4653L942.05 31.9922H943.13V44.6365Z" fill="url(#paint48_linear_122_130)"/>
<path d="M941.93 54.5856C943.356 54.5856 944.436 55.1906 945.17 56.4005C945.916 57.5971 946.29 59.3389 946.29 61.6257C946.29 63.9126 945.916 65.661 945.17 66.8709C944.436 68.0808 943.356 68.6858 941.93 68.6858C940.517 68.6858 939.437 68.0808 938.69 66.8709C937.943 65.661 937.57 63.9126 937.57 61.6257C937.57 59.3521 937.943 57.6104 938.69 56.4005C939.437 55.1906 940.517 54.5856 941.93 54.5856ZM938.99 61.6257C938.99 63.2478 939.137 64.5176 939.43 65.435L943.87 56.5999C943.403 55.975 942.756 55.6626 941.93 55.6626C941.01 55.6626 940.29 56.1545 939.77 57.1384C939.25 58.109 938.99 59.6048 938.99 61.6257ZM941.93 67.5889C942.863 67.5889 943.59 67.1036 944.11 66.133C944.63 65.1491 944.89 63.6467 944.89 61.6257C944.89 59.9106 944.723 58.581 944.39 57.637L939.95 66.5518C940.43 67.2432 941.09 67.5889 941.93 67.5889Z" fill="url(#paint49_linear_122_130)"/>
<path d="M943.13 90.2221H946.07V91.2792H938.45V90.2221H941.85V79.0138L938.61 80.9483L938.05 80.0509L942.05 77.5778H943.13V90.2221Z" fill="url(#paint50_linear_122_130)"/>
<path d="M943.13 113.015H946.07V114.072H938.45V113.015H941.85V101.807L938.61 103.741L938.05 102.844L942.05 100.371H943.13V113.015Z" fill="url(#paint51_linear_122_130)"/>
<path d="M941.93 122.964C943.356 122.964 944.436 123.569 945.17 124.779C945.916 125.976 946.29 127.717 946.29 130.004C946.29 132.291 945.916 134.039 945.17 135.249C944.436 136.459 943.356 137.064 941.93 137.064C940.517 137.064 939.437 136.459 938.69 135.249C937.943 134.039 937.57 132.291 937.57 130.004C937.57 127.731 937.943 125.989 938.69 124.779C939.437 123.569 940.517 122.964 941.93 122.964ZM938.99 130.004C938.99 131.626 939.137 132.896 939.43 133.813L943.87 124.978C943.403 124.353 942.756 124.041 941.93 124.041C941.01 124.041 940.29 124.533 939.77 125.517C939.25 126.487 938.99 127.983 938.99 130.004ZM941.93 135.967C942.863 135.967 943.59 135.482 944.11 134.511C944.63 133.528 944.89 132.025 944.89 130.004C944.89 128.289 944.723 126.959 944.39 126.015L939.95 134.93C940.43 135.622 941.09 135.967 941.93 135.967Z" fill="url(#paint52_linear_122_130)"/>
<path d="M943.13 158.601H946.07V159.658H938.45V158.601H941.85V147.392L938.61 149.327L938.05 148.429L942.05 145.956H943.13V158.601Z" fill="url(#paint53_linear_122_130)"/>
<path d="M941.93 168.55C943.356 168.55 944.436 169.155 945.17 170.365C945.916 171.561 946.29 173.303 946.29 175.59C946.29 177.877 945.916 179.625 945.17 180.835C944.436 182.045 943.356 182.65 941.93 182.65C940.517 182.65 939.437 182.045 938.69 180.835C937.943 179.625 937.57 177.877 937.57 175.59C937.57 173.316 937.943 171.574 938.69 170.365C939.437 169.155 940.517 168.55 941.93 168.55ZM938.99 175.59C938.99 177.212 939.137 178.482 939.43 179.399L943.87 170.564C943.403 169.939 942.756 169.627 941.93 169.627C941.01 169.627 940.29 170.119 939.77 171.102C939.25 172.073 938.99 173.569 938.99 175.59ZM941.93 181.553C942.863 181.553 943.59 181.068 944.11 180.097C944.63 179.113 944.89 177.611 944.89 175.59C944.89 173.875 944.723 172.545 944.39 171.601L939.95 180.516C940.43 181.207 941.09 181.553 941.93 181.553Z" fill="url(#paint54_linear_122_130)"/>
<path d="M941.93 191.342C943.356 191.342 944.436 191.947 945.17 193.157C945.916 194.354 946.29 196.096 946.29 198.383C946.29 200.669 945.916 202.418 945.17 203.628C944.436 204.838 943.356 205.443 941.93 205.443C940.517 205.443 939.437 204.838 938.69 203.628C937.943 202.418 937.57 200.669 937.57 198.383C937.57 196.109 937.943 194.367 938.69 193.157C939.437 191.947 940.517 191.342 941.93 191.342ZM938.99 198.383C938.99 200.005 939.137 201.274 939.43 202.192L943.87 193.357C943.403 192.732 942.756 192.419 941.93 192.419C941.01 192.419 940.29 192.911 939.77 193.895C939.25 194.866 938.99 196.362 938.99 198.383ZM941.93 204.346C942.863 204.346 943.59 203.86 944.11 202.89C944.63 201.906 944.89 200.404 944.89 198.383C944.89 196.667 944.723 195.338 944.39 194.394L939.95 203.309C940.43 204 941.09 204.346 941.93 204.346Z" fill="url(#paint55_linear_122_130)"/>
<path d="M943.13 226.979H946.07V228.036H938.45V226.979H941.85V215.771L938.61 217.705L938.05 216.808L942.05 214.335H943.13V226.979Z" fill="url(#paint56_linear_122_130)"/>
<path d="M941.93 236.928C943.356 236.928 944.436 237.533 945.17 238.743C945.916 239.94 946.29 241.681 946.29 243.968C946.29 246.255 945.916 248.003 945.17 249.213C944.436 250.423 943.356 251.028 941.93 251.028C940.517 251.028 939.437 250.423 938.69 249.213C937.943 248.003 937.57 246.255 937.57 243.968C937.57 241.695 937.943 239.953 938.69 238.743C939.437 237.533 940.517 236.928 941.93 236.928ZM938.99 243.968C938.99 245.59 939.137 246.86 939.43 247.777L943.87 238.942C943.403 238.317 942.756 238.005 941.93 238.005C941.01 238.005 940.29 238.497 939.77 239.481C939.25 240.451 938.99 241.947 938.99 243.968ZM941.93 249.931C942.863 249.931 943.59 249.446 944.11 248.475C944.63 247.492 944.89 245.989 944.89 243.968C944.89 242.253 944.723 240.923 944.39 239.979L939.95 248.894C940.43 249.586 941.09 249.931 941.93 249.931Z" fill="url(#paint57_linear_122_130)"/>
<path d="M943.13 272.565H946.07V273.622H938.45V272.565H941.85V261.356L938.61 263.291L938.05 262.393L942.05 259.92H943.13V272.565Z" fill="url(#paint58_linear_122_130)"/>
<path d="M943.13 295.357H946.07V296.414H938.45V295.357H941.85V284.149L938.61 286.084L938.05 285.186L942.05 282.713H943.13V295.357Z" fill="url(#paint59_linear_122_130)"/>
<path d="M979.07 54.5856C980.497 54.5856 981.577 55.1906 982.31 56.4005C983.057 57.5971 983.43 59.3389 983.43 61.6257C983.43 63.9126 983.057 65.661 982.31 66.8709C981.577 68.0808 980.497 68.6858 979.07 68.6858C977.657 68.6858 976.577 68.0808 975.83 66.8709C975.084 65.661 974.71 63.9126 974.71 61.6257C974.71 59.3521 975.084 57.6104 975.83 56.4005C976.577 55.1906 977.657 54.5856 979.07 54.5856ZM976.13 61.6257C976.13 63.2478 976.277 64.5176 976.57 65.435L981.01 56.5999C980.543 55.975 979.897 55.6626 979.07 55.6626C978.15 55.6626 977.43 56.1545 976.91 57.1384C976.39 58.109 976.13 59.6048 976.13 61.6257ZM979.07 67.5889C980.003 67.5889 980.73 67.1036 981.25 66.133C981.77 65.1491 982.03 63.6467 982.03 61.6257C982.03 59.9106 981.863 58.581 981.53 57.637L977.09 66.5518C977.57 67.2432 978.23 67.5889 979.07 67.5889Z" fill="url(#paint60_linear_122_130)"/>
<path d="M980.27 90.2221H983.21V91.2792H975.59V90.2221H978.99V79.0138L975.75 80.9483L975.19 80.0509L979.19 77.5778H980.27V90.2221Z" fill="url(#paint61_linear_122_130)"/>
<path d="M979.07 100.171C980.497 100.171 981.577 100.776 982.31 101.986C983.057 103.183 983.43 104.924 983.43 107.211C983.43 109.498 983.057 111.247 982.31 112.457C981.577 113.666 980.497 114.271 979.07 114.271C977.657 114.271 976.577 113.666 975.83 112.457C975.084 111.247 974.71 109.498 974.71 107.211C974.71 104.938 975.084 103.196 975.83 101.986C976.577 100.776 977.657 100.171 979.07 100.171ZM976.13 107.211C976.13 108.833 976.277 110.103 976.57 111.021L981.01 102.186C980.543 101.561 979.897 101.248 979.07 101.248C978.15 101.248 977.43 101.74 976.91 102.724C976.39 103.695 976.13 105.19 976.13 107.211ZM979.07 113.174C980.003 113.174 980.73 112.689 981.25 111.719C981.77 110.735 982.03 109.232 982.03 107.211C982.03 105.496 981.863 104.167 981.53 103.223L977.09 112.137C977.57 112.829 978.23 113.174 979.07 113.174Z" fill="url(#paint62_linear_122_130)"/>
<path d="M979.07 122.964C980.497 122.964 981.577 123.569 982.31 124.779C983.057 125.976 983.43 127.717 983.43 130.004C983.43 132.291 983.057 134.039 982.31 135.249C981.577 136.459 980.497 137.064 979.07 137.064C977.657 137.064 976.577 136.459 975.83 135.249C975.084 134.039 974.71 132.291 974.71 130.004C974.71 127.731 975.084 125.989 975.83 124.779C976.577 123.569 977.657 122.964 979.07 122.964ZM976.13 130.004C976.13 131.626 976.277 132.896 976.57 133.813L981.01 124.978C980.543 124.353 979.897 124.041 979.07 124.041C978.15 124.041 977.43 124.533 976.91 125.517C976.39 126.487 976.13 127.983 976.13 130.004ZM979.07 135.967C980.003 135.967 980.73 135.482 981.25 134.511C981.77 133.528 982.03 132.025 982.03 130.004C982.03 128.289 981.863 126.959 981.53 126.015L977.09 134.93C977.57 135.622 978.23 135.967 979.07 135.967Z" fill="url(#paint63_linear_122_130)"/>
<path d="M980.27 158.601H983.21V159.658H975.59V158.601H978.99V147.392L975.75 149.327L975.19 148.429L979.19 145.956H980.27V158.601Z" fill="url(#paint64_linear_122_130)"/>
<path d="M979.07 168.55C980.497 168.55 981.577 169.155 982.31 170.365C983.057 171.561 983.43 173.303 983.43 175.59C983.43 177.877 983.057 179.625 982.31 180.835C981.577 182.045 980.497 182.65 979.07 182.65C977.657 182.65 976.577 182.045 975.83 180.835C975.084 179.625 974.71 177.877 974.71 175.59C974.71 173.316 975.084 171.574 975.83 170.365C976.577 169.155 977.657 168.55 979.07 168.55ZM976.13 175.59C976.13 177.212 976.277 178.482 976.57 179.399L981.01 170.564C980.543 169.939 979.897 169.627 979.07 169.627C978.15 169.627 977.43 170.119 976.91 171.102C976.39 172.073 976.13 173.569 976.13 175.59ZM979.07 181.553C980.003 181.553 980.73 181.068 981.25 180.097C981.77 179.113 982.03 177.611 982.03 175.59C982.03 173.875 981.863 172.545 981.53 171.601L977.09 180.516C977.57 181.207 978.23 181.553 979.07 181.553Z" fill="url(#paint65_linear_122_130)"/>
<path d="M980.27 204.186H983.21V205.243H975.59V204.186H978.99V192.978L975.75 194.912L975.19 194.015L979.19 191.542H980.27V204.186Z" fill="url(#paint66_linear_122_130)"/>
<path d="M979.07 214.135C980.497 214.135 981.577 214.74 982.31 215.95C983.057 217.147 983.43 218.888 983.43 221.175C983.43 223.462 983.057 225.211 982.31 226.421C981.577 227.63 980.497 228.235 979.07 228.235C977.657 228.235 976.577 227.63 975.83 226.421C975.084 225.211 974.71 223.462 974.71 221.175C974.71 218.902 975.084 217.16 975.83 215.95C976.577 214.74 977.657 214.135 979.07 214.135ZM976.13 221.175C976.13 222.797 976.277 224.067 976.57 224.985L981.01 216.15C980.543 215.525 979.897 215.212 979.07 215.212C978.15 215.212 977.43 215.704 976.91 216.688C976.39 217.659 976.13 219.154 976.13 221.175ZM979.07 227.139C980.003 227.139 980.73 226.653 981.25 225.683C981.77 224.699 982.03 223.196 982.03 221.175C982.03 219.46 981.863 218.131 981.53 217.187L977.09 226.101C977.57 226.793 978.23 227.139 979.07 227.139Z" fill="url(#paint67_linear_122_130)"/>
<path d="M979.07 236.928C980.497 236.928 981.577 237.533 982.31 238.743C983.057 239.94 983.43 241.681 983.43 243.968C983.43 246.255 983.057 248.003 982.31 249.213C981.577 250.423 980.497 251.028 979.07 251.028C977.657 251.028 976.577 250.423 975.83 249.213C975.084 248.003 974.71 246.255 974.71 243.968C974.71 241.695 975.084 239.953 975.83 238.743C976.577 237.533 977.657 236.928 979.07 236.928ZM976.13 243.968C976.13 245.59 976.277 246.86 976.57 247.777L981.01 238.942C980.543 238.317 979.897 238.005 979.07 238.005C978.15 238.005 977.43 238.497 976.91 239.481C976.39 240.451 976.13 241.947 976.13 243.968ZM979.07 249.931C980.003 249.931 980.73 249.446 981.25 248.475C981.77 247.492 982.03 245.989 982.03 243.968C982.03 242.253 981.863 240.923 981.53 239.979L977.09 248.894C977.57 249.586 978.23 249.931 979.07 249.931Z" fill="url(#paint68_linear_122_130)"/>
<path d="M980.27 272.565H983.21V273.622H975.59V272.565H978.99V261.356L975.75 263.291L975.19 262.393L979.19 259.92H980.27V272.565Z" fill="url(#paint69_linear_122_130)"/>
<path d="M979.07 282.514C980.497 282.514 981.577 283.119 982.31 284.329C983.057 285.525 983.43 287.267 983.43 289.554C983.43 291.841 983.057 293.589 982.31 294.799C981.577 296.009 980.497 296.614 979.07 296.614C977.657 296.614 976.577 296.009 975.83 294.799C975.084 293.589 974.71 291.841 974.71 289.554C974.71 287.28 975.084 285.538 975.83 284.329C976.577 283.119 977.657 282.514 979.07 282.514ZM976.13 289.554C976.13 291.176 976.277 292.446 976.57 293.363L981.01 284.528C980.543 283.903 979.897 283.591 979.07 283.591C978.15 283.591 977.43 284.083 976.91 285.066C976.39 286.037 976.13 287.533 976.13 289.554ZM979.07 295.517C980.003 295.517 980.73 295.032 981.25 294.061C981.77 293.077 982.03 291.575 982.03 289.554C982.03 287.839 981.863 286.509 981.53 285.565L977.09 294.48C977.57 295.171 978.23 295.517 979.07 295.517Z" fill="url(#paint70_linear_122_130)"/>
<path d="M980.27 318.15H983.21V319.207H975.59V318.15H978.99V306.942L975.75 308.876L975.19 307.979L979.19 305.506H980.27V318.15Z" fill="url(#paint71_linear_122_130)"/>
<path d="M980.27 340.943H983.21V342H975.59V340.943H978.99V329.735L975.75 331.669L975.19 330.772L979.19 328.299H980.27V340.943Z" fill="url(#paint72_linear_122_130)"/>
<path d="M923.36 77.3784C924.786 77.3784 925.866 77.9834 926.599 79.1933C927.346 80.3899 927.719 82.1317 927.719 84.4185C927.719 86.7054 927.346 88.4538 926.599 89.6637C925.866 90.8736 924.786 91.4786 923.36 91.4786C921.946 91.4786 920.867 90.8736 920.12 89.6637C919.373 88.4538 919 86.7054 919 84.4185C919 82.145 919.373 80.4032 920.12 79.1933C920.867 77.9834 921.946 77.3784 923.36 77.3784ZM920.42 84.4185C920.42 86.0406 920.567 87.3104 920.86 88.2278L925.3 79.3927C924.833 78.7678 924.186 78.4554 923.36 78.4554C922.44 78.4554 921.72 78.9473 921.2 79.9312C920.68 80.9018 920.42 82.3976 920.42 84.4185ZM923.36 90.3817C924.293 90.3817 925.02 89.8964 925.54 88.9258C926.06 87.9419 926.319 86.4395 926.319 84.4185C926.319 82.7034 926.153 81.3738 925.82 80.4298L921.38 89.3446C921.86 90.036 922.52 90.3817 923.36 90.3817Z" fill="url(#paint73_linear_122_130)"/>
<path d="M923.36 100.171C924.786 100.171 925.866 100.776 926.599 101.986C927.346 103.183 927.719 104.924 927.719 107.211C927.719 109.498 927.346 111.247 926.599 112.457C925.866 113.666 924.786 114.271 923.36 114.271C921.946 114.271 920.867 113.666 920.12 112.457C919.373 111.247 919 109.498 919 107.211C919 104.938 919.373 103.196 920.12 101.986C920.867 100.776 921.946 100.171 923.36 100.171ZM920.42 107.211C920.42 108.833 920.567 110.103 920.86 111.021L925.3 102.186C924.833 101.561 924.186 101.248 923.36 101.248C922.44 101.248 921.72 101.74 921.2 102.724C920.68 103.695 920.42 105.19 920.42 107.211ZM923.36 113.174C924.293 113.174 925.02 112.689 925.54 111.719C926.06 110.735 926.319 109.232 926.319 107.211C926.319 105.496 926.153 104.167 925.82 103.223L921.38 112.137C921.86 112.829 922.52 113.174 923.36 113.174Z" fill="url(#paint74_linear_122_130)"/>
<path d="M924.56 135.808H927.499V136.865H919.88V135.808H923.28V124.599L920.04 126.534L919.48 125.636L923.48 123.163H924.56V135.808Z" fill="url(#paint75_linear_122_130)"/>
<path d="M923.36 145.757C924.786 145.757 925.866 146.362 926.599 147.572C927.346 148.768 927.719 150.51 927.719 152.797C927.719 155.084 927.346 156.832 926.599 158.042C925.866 159.252 924.786 159.857 923.36 159.857C921.946 159.857 920.867 159.252 920.12 158.042C919.373 156.832 919 155.084 919 152.797C919 150.523 919.373 148.782 920.12 147.572C920.867 146.362 921.946 145.757 923.36 145.757ZM920.42 152.797C920.42 154.419 920.567 155.689 920.86 156.606L925.3 147.771C924.833 147.146 924.186 146.834 923.36 146.834C922.44 146.834 921.72 147.326 921.2 148.31C920.68 149.28 920.42 150.776 920.42 152.797ZM923.36 158.76C924.293 158.76 925.02 158.275 925.54 157.304C926.06 156.32 926.319 154.818 926.319 152.797C926.319 151.082 926.153 149.752 925.82 148.808L921.38 157.723C921.86 158.414 922.52 158.76 923.36 158.76Z" fill="url(#paint76_linear_122_130)"/>
<path d="M924.56 181.393H927.499V182.45H919.88V181.393H923.28V170.185L920.04 172.12L919.48 171.222L923.48 168.749H924.56V181.393Z" fill="url(#paint77_linear_122_130)"/>
<path d="M924.56 204.186H927.499V205.243H919.88V204.186H923.28V192.978L920.04 194.912L919.48 194.015L923.48 191.542H924.56V204.186Z" fill="url(#paint78_linear_122_130)"/>
<path d="M961.7 44.6365H964.64V45.6936H957.02V44.6365H960.42V33.4282L957.18 35.3627L956.62 34.4653L960.62 31.9922H961.7V44.6365Z" fill="url(#paint79_linear_122_130)"/>
<path d="M960.5 54.5856C961.927 54.5856 963.006 55.1906 963.74 56.4005C964.486 57.5971 964.86 59.3389 964.86 61.6257C964.86 63.9126 964.486 65.661 963.74 66.8709C963.006 68.0808 961.927 68.6858 960.5 68.6858C959.087 68.6858 958.007 68.0808 957.26 66.8709C956.514 65.661 956.14 63.9126 956.14 61.6257C956.14 59.3521 956.514 57.6104 957.26 56.4005C958.007 55.1906 959.087 54.5856 960.5 54.5856ZM957.56 61.6257C957.56 63.2478 957.707 64.5176 958 65.435L962.44 56.5999C961.973 55.975 961.327 55.6626 960.5 55.6626C959.58 55.6626 958.86 56.1545 958.34 57.1384C957.82 58.109 957.56 59.6048 957.56 61.6257ZM960.5 67.5889C961.433 67.5889 962.16 67.1036 962.68 66.133C963.2 65.1491 963.46 63.6467 963.46 61.6257C963.46 59.9106 963.293 58.581 962.96 57.637L958.52 66.5518C959 67.2432 959.66 67.5889 960.5 67.5889Z" fill="url(#paint80_linear_122_130)"/>
<path d="M961.7 90.2221H964.64V91.2792H957.02V90.2221H960.42V79.0138L957.18 80.9483L956.62 80.0509L960.62 77.5778H961.7V90.2221Z" fill="url(#paint81_linear_122_130)"/>
<path d="M961.7 113.015H964.64V114.072H957.02V113.015H960.42V101.807L957.18 103.741L956.62 102.844L960.62 100.371H961.7V113.015Z" fill="url(#paint82_linear_122_130)"/>
<path d="M960.5 122.964C961.927 122.964 963.006 123.569 963.74 124.779C964.486 125.976 964.86 127.717 964.86 130.004C964.86 132.291 964.486 134.039 963.74 135.249C963.006 136.459 961.927 137.064 960.5 137.064C959.087 137.064 958.007 136.459 957.26 135.249C956.514 134.039 956.14 132.291 956.14 130.004C956.14 127.731 956.514 125.989 957.26 124.779C958.007 123.569 959.087 122.964 960.5 122.964ZM957.56 130.004C957.56 131.626 957.707 132.896 958 133.813L962.44 124.978C961.973 124.353 961.327 124.041 960.5 124.041C959.58 124.041 958.86 124.533 958.34 125.517C957.82 126.487 957.56 127.983 957.56 130.004ZM960.5 135.967C961.433 135.967 962.16 135.482 962.68 134.511C963.2 133.528 963.46 132.025 963.46 130.004C963.46 128.289 963.293 126.959 962.96 126.015L958.52 134.93C959 135.622 959.66 135.967 960.5 135.967Z" fill="url(#paint83_linear_122_130)"/>
<path d="M961.7 158.601H964.64V159.658H957.02V158.601H960.42V147.392L957.18 149.327L956.62 148.429L960.62 145.956H961.7V158.601Z" fill="url(#paint84_linear_122_130)"/>
<path d="M961.7 181.393H964.64V182.45H957.02V181.393H960.42V170.185L957.18 172.12L956.62 171.222L960.62 168.749H961.7V181.393Z" fill="url(#paint85_linear_122_130)"/>
<path d="M960.5 191.342C961.927 191.342 963.006 191.947 963.74 193.157C964.486 194.354 964.86 196.096 964.86 198.383C964.86 200.669 964.486 202.418 963.74 203.628C963.006 204.838 961.927 205.443 960.5 205.443C959.087 205.443 958.007 204.838 957.26 203.628C956.514 202.418 956.14 200.669 956.14 198.383C956.14 196.109 956.514 194.367 957.26 193.157C958.007 191.947 959.087 191.342 960.5 191.342ZM957.56 198.383C957.56 200.005 957.707 201.274 958 202.192L962.44 193.357C961.973 192.732 961.327 192.419 960.5 192.419C959.58 192.419 958.86 192.911 958.34 193.895C957.82 194.866 957.56 196.362 957.56 198.383ZM960.5 204.346C961.433 204.346 962.16 203.86 962.68 202.89C963.2 201.906 963.46 200.404 963.46 198.383C963.46 196.667 963.293 195.338 962.96 194.394L958.52 203.309C959 204 959.66 204.346 960.5 204.346Z" fill="url(#paint86_linear_122_130)"/>
<path d="M961.7 226.979H964.64V228.036H957.02V226.979H960.42V215.771L957.18 217.705L956.62 216.808L960.62 214.335H961.7V226.979Z" fill="url(#paint87_linear_122_130)"/>
<path d="M960.5 236.928C961.927 236.928 963.006 237.533 963.74 238.743C964.486 239.94 964.86 241.681 964.86 243.968C964.86 246.255 964.486 248.003 963.74 249.213C963.006 250.423 961.927 251.028 960.5 251.028C959.087 251.028 958.007 250.423 957.26 249.213C956.514 248.003 956.14 246.255 956.14 243.968C956.14 241.695 956.514 239.953 957.26 238.743C958.007 237.533 959.087 236.928 960.5 236.928ZM957.56 243.968C957.56 245.59 957.707 246.86 958 247.777L962.44 238.942C961.973 238.317 961.327 238.005 960.5 238.005C959.58 238.005 958.86 238.497 958.34 239.481C957.82 240.451 957.56 241.947 957.56 243.968ZM960.5 249.931C961.433 249.931 962.16 249.446 962.68 248.475C963.2 247.492 963.46 245.989 963.46 243.968C963.46 242.253 963.293 240.923 962.96 239.979L958.52 248.894C959 249.586 959.66 249.931 960.5 249.931Z" fill="url(#paint88_linear_122_130)"/>
<path d="M997.64 31.7928C999.067 31.7928 1000.15 32.3978 1000.88 33.6077C1001.63 34.8043 1002 36.546 1002 38.8329C1002 41.1198 1001.63 42.8682 1000.88 44.0781C1000.15 45.288 999.067 45.893 997.64 45.893C996.227 45.893 995.147 45.288 994.401 44.0781C993.654 42.8682 993.281 41.1198 993.281 38.8329C993.281 36.5593 993.654 34.8176 994.401 33.6077C995.147 32.3978 996.227 31.7928 997.64 31.7928ZM994.701 38.8329C994.701 40.455 994.847 41.7248 995.14 42.6422L999.58 33.8071C999.114 33.1822 998.467 32.8698 997.64 32.8698C996.72 32.8698 996 33.3617 995.48 34.3456C994.96 35.3162 994.701 36.812 994.701 38.8329ZM997.64 44.7961C998.574 44.7961 999.3 44.3108 999.82 43.3402C1000.34 42.3563 1000.6 40.8539 1000.6 38.8329C1000.6 37.1178 1000.43 35.7882 1000.1 34.8442L995.66 43.759C996.14 44.4504 996.8 44.7961 997.64 44.7961Z" fill="url(#paint89_linear_122_130)"/>
<path d="M998.84 67.4293H1001.78V68.4864H994.161V67.4293H997.56V56.221L994.321 58.1555L993.761 57.2581L997.76 54.785H998.84V67.4293Z" fill="url(#paint90_linear_122_130)"/>
<path d="M998.84 90.2221H1001.78V91.2792H994.161V90.2221H997.56V79.0138L994.321 80.9483L993.761 80.0509L997.76 77.5778H998.84V90.2221Z" fill="url(#paint91_linear_122_130)"/>
<path d="M997.64 100.171C999.067 100.171 1000.15 100.776 1000.88 101.986C1001.63 103.183 1002 104.924 1002 107.211C1002 109.498 1001.63 111.247 1000.88 112.457C1000.15 113.666 999.067 114.271 997.64 114.271C996.227 114.271 995.147 113.666 994.401 112.457C993.654 111.247 993.281 109.498 993.281 107.211C993.281 104.938 993.654 103.196 994.401 101.986C995.147 100.776 996.227 100.171 997.64 100.171ZM994.701 107.211C994.701 108.833 994.847 110.103 995.14 111.021L999.58 102.186C999.114 101.561 998.467 101.248 997.64 101.248C996.72 101.248 996 101.74 995.48 102.724C994.96 103.695 994.701 105.19 994.701 107.211ZM997.64 113.174C998.574 113.174 999.3 112.689 999.82 111.719C1000.34 110.735 1000.6 109.232 1000.6 107.211C1000.6 105.496 1000.43 104.167 1000.1 103.223L995.66 112.137C996.14 112.829 996.8 113.174 997.64 113.174Z" fill="url(#paint92_linear_122_130)"/>
<path d="M997.64 122.964C999.067 122.964 1000.15 123.569 1000.88 124.779C1001.63 125.976 1002 127.717 1002 130.004C1002 132.291 1001.63 134.039 1000.88 135.249C1000.15 136.459 999.067 137.064 997.64 137.064C996.227 137.064 995.147 136.459 994.401 135.249C993.654 134.039 993.281 132.291 993.281 130.004C993.281 127.731 993.654 125.989 994.401 124.779C995.147 123.569 996.227 122.964 997.64 122.964ZM994.701 130.004C994.701 131.626 994.847 132.896 995.14 133.813L999.58 124.978C999.114 124.353 998.467 124.041 997.64 124.041C996.72 124.041 996 124.533 995.48 125.517C994.96 126.487 994.701 127.983 994.701 130.004ZM997.64 135.967C998.574 135.967 999.3 135.482 999.82 134.511C1000.34 133.528 1000.6 132.025 1000.6 130.004C1000.6 128.289 1000.43 126.959 1000.1 126.015L995.66 134.93C996.14 135.622 996.8 135.967 997.64 135.967Z" fill="url(#paint93_linear_122_130)"/>
</g>
</g>
<defs>
<filter id="filter0_f_122_130" x="-536.19" y="-677.19" width="2141.38" height="1500.38" filterUnits="userSpaceOnUse" color-interpolation-filters="sRGB">
<feFlood flood-opacity="0" result="BackgroundImageFix"/>
<feBlend mode="normal" in="SourceGraphic" in2="BackgroundImageFix" result="shape"/>
<feGaussianBlur stdDeviation="200.095" result="effect1_foregroundBlur_122_130"/>
</filter>
<linearGradient id="paint0_linear_122_130" x1="74.5" y1="309" x2="74.5" y2="620.381" gradientUnits="userSpaceOnUse">
<stop stop-color="#F7DD43"/>
<stop offset="1" stop-color="#F7DD43" stop-opacity="0"/>
</linearGradient>
<linearGradient id="paint1_linear_122_130" x1="74.5" y1="309" x2="74.5" y2="620.381" gradientUnits="userSpaceOnUse">
<stop stop-color="#F7DD43"/>
<stop offset="1" stop-color="#F7DD43" stop-opacity="0"/>
</linearGradient>
<linearGradient id="paint2_linear_122_130" x1="74.5" y1="309" x2="74.5" y2="620.381" gradientUnits="userSpaceOnUse">
<stop stop-color="#F7DD43"/>
<stop offset="1" stop-color="#F7DD43" stop-opacity="0"/>
</linearGradient>
<linearGradient id="paint3_linear_122_130" x1="74.5" y1="309" x2="74.5" y2="620.381" gradientUnits="userSpaceOnUse">
<stop stop-color="#F7DD43"/>
<stop offset="1" stop-color="#F7DD43" stop-opacity="0"/>
</linearGradient>
<linearGradient id="paint4_linear_122_130" x1="74.5" y1="309" x2="74.5" y2="620.381" gradientUnits="userSpaceOnUse">
<stop stop-color="#F7DD43"/>
<stop offset="1" stop-color="#F7DD43" stop-opacity="0"/>
</linearGradient>
<linearGradient id="paint5_linear_122_130" x1="74.5" y1="309" x2="74.5" y2="620.381" gradientUnits="userSpaceOnUse">
<stop stop-color="#F7DD43"/>
<stop offset="1" stop-color="#F7DD43" stop-opacity="0"/>
</linearGradient>
<linearGradient id="paint6_linear_122_130" x1="74.5" y1="309" x2="74.5" y2="620.381" gradientUnits="userSpaceOnUse">
<stop stop-color="#F7DD43"/>
<stop offset="1" stop-color="#F7DD43" stop-opacity="0"/>
</linearGradient>
<linearGradient id="paint7_linear_122_130" x1="74.5" y1="309" x2="74.5" y2="620.381" gradientUnits="userSpaceOnUse">
<stop stop-color="#F7DD43"/>
<stop offset="1" stop-color="#F7DD43" stop-opacity="0"/>
</linearGradient>
<linearGradient id="paint8_linear_122_130" x1="74.5" y1="309" x2="74.5" y2="620.381" gradientUnits="userSpaceOnUse">
<stop stop-color="#F7DD43"/>
<stop offset="1" stop-color="#F7DD43" stop-opacity="0"/>
</linearGradient>
<linearGradient id="paint9_linear_122_130" x1="74.5" y1="309" x2="74.5" y2="620.381" gradientUnits="userSpaceOnUse">
<stop stop-color="#F7DD43"/>
<stop offset="1" stop-color="#F7DD43" stop-opacity="0"/>
</linearGradient>
<linearGradient id="paint10_linear_122_130" x1="74.5" y1="309" x2="74.5" y2="620.381" gradientUnits="userSpaceOnUse">
<stop stop-color="#F7DD43"/>
<stop offset="1" stop-color="#F7DD43" stop-opacity="0"/>
</linearGradient>
<linearGradient id="paint11_linear_122_130" x1="74.5" y1="309" x2="74.5" y2="620.381" gradientUnits="userSpaceOnUse">
<stop stop-color="#F7DD43"/>
<stop offset="1" stop-color="#F7DD43" stop-opacity="0"/>
</linearGradient>
<linearGradient id="paint12_linear_122_130" x1="74.5" y1="309" x2="74.5" y2="620.381" gradientUnits="userSpaceOnUse">
<stop stop-color="#F7DD43"/>
<stop offset="1" stop-color="#F7DD43" stop-opacity="0"/>
</linearGradient>
<linearGradient id="paint13_linear_122_130" x1="74.5" y1="309" x2="74.5" y2="620.381" gradientUnits="userSpaceOnUse">
<stop stop-color="#F7DD43"/>
<stop offset="1" stop-color="#F7DD43" stop-opacity="0"/>
</linearGradient>
<linearGradient id="paint14_linear_122_130" x1="74.5" y1="309" x2="74.5" y2="620.381" gradientUnits="userSpaceOnUse">
<stop stop-color="#F7DD43"/>
<stop offset="1" stop-color="#F7DD43" stop-opacity="0"/>
</linearGradient>
<linearGradient id="paint15_linear_122_130" x1="74.5" y1="309" x2="74.5" y2="620.381" gradientUnits="userSpaceOnUse">
<stop stop-color="#F7DD43"/>
<stop offset="1" stop-color="#F7DD43" stop-opacity="0"/>
</linearGradient>
<linearGradient id="paint16_linear_122_130" x1="74.5" y1="309" x2="74.5" y2="620.381" gradientUnits="userSpaceOnUse">
<stop stop-color="#F7DD43"/>
<stop offset="1" stop-color="#F7DD43" stop-opacity="0"/>
</linearGradient>
<linearGradient id="paint17_linear_122_130" x1="74.5" y1="309" x2="74.5" y2="620.381" gradientUnits="userSpaceOnUse">
<stop stop-color="#F7DD43"/>
<stop offset="1" stop-color="#F7DD43" stop-opacity="0"/>
</linearGradient>
<linearGradient id="paint18_linear_122_130" x1="74.5" y1="309" x2="74.5" y2="620.381" gradientUnits="userSpaceOnUse">
<stop stop-color="#F7DD43"/>
<stop offset="1" stop-color="#F7DD43" stop-opacity="0"/>
</linearGradient>
<linearGradient id="paint19_linear_122_130" x1="74.5" y1="309" x2="74.5" y2="620.381" gradientUnits="userSpaceOnUse">
<stop stop-color="#F7DD43"/>
<stop offset="1" stop-color="#F7DD43" stop-opacity="0"/>
</linearGradient>
<linearGradient id="paint20_linear_122_130" x1="74.5" y1="309" x2="74.5" y2="620.381" gradientUnits="userSpaceOnUse">
<stop stop-color="#F7DD43"/>
<stop offset="1" stop-color="#F7DD43" stop-opacity="0"/>
</linearGradient>
<linearGradient id="paint21_linear_122_130" x1="74.5" y1="309" x2="74.5" y2="620.381" gradientUnits="userSpaceOnUse">
<stop stop-color="#F7DD43"/>
<stop offset="1" stop-color="#F7DD43" stop-opacity="0"/>
</linearGradient>
<linearGradient id="paint22_linear_122_130" x1="74.5" y1="309" x2="74.5" y2="620.381" gradientUnits="userSpaceOnUse">
<stop stop-color="#F7DD43"/>
<stop offset="1" stop-color="#F7DD43" stop-opacity="0"/>
</linearGradient>
<linearGradient id="paint23_linear_122_130" x1="74.5" y1="309" x2="74.5" y2="620.381" gradientUnits="userSpaceOnUse">
<stop stop-color="#F7DD43"/>
<stop offset="1" stop-color="#F7DD43" stop-opacity="0"/>
</linearGradient>
<linearGradient id="paint24_linear_122_130" x1="74.5" y1="309" x2="74.5" y2="620.381" gradientUnits="userSpaceOnUse">
<stop stop-color="#F7DD43"/>
<stop offset="1" stop-color="#F7DD43" stop-opacity="0"/>
</linearGradient>
<linearGradient id="paint25_linear_122_130" x1="74.5" y1="309" x2="74.5" y2="620.381" gradientUnits="userSpaceOnUse">
<stop stop-color="#F7DD43"/>
<stop offset="1" stop-color="#F7DD43" stop-opacity="0"/>
</linearGradient>
<linearGradient id="paint26_linear_122_130" x1="74.5" y1="309" x2="74.5" y2="620.381" gradientUnits="userSpaceOnUse">
<stop stop-color="#F7DD43"/>
<stop offset="1" stop-color="#F7DD43" stop-opacity="0"/>
</linearGradient>
<linearGradient id="paint27_linear_122_130" x1="74.5" y1="309" x2="74.5" y2="620.381" gradientUnits="userSpaceOnUse">
<stop stop-color="#F7DD43"/>
<stop offset="1" stop-color="#F7DD43" stop-opacity="0"/>
</linearGradient>
<linearGradient id="paint28_linear_122_130" x1="74.5" y1="309" x2="74.5" y2="620.381" gradientUnits="userSpaceOnUse">
<stop stop-color="#F7DD43"/>
<stop offset="1" stop-color="#F7DD43" stop-opacity="0"/>
</linearGradient>
<linearGradient id="paint29_linear_122_130" x1="74.5" y1="309" x2="74.5" y2="620.381" gradientUnits="userSpaceOnUse">
<stop stop-color="#F7DD43"/>
<stop offset="1" stop-color="#F7DD43" stop-opacity="0"/>
</linearGradient>
<linearGradient id="paint30_linear_122_130" x1="74.5" y1="309" x2="74.5" y2="620.381" gradientUnits="userSpaceOnUse">
<stop stop-color="#F7DD43"/>
<stop offset="1" stop-color="#F7DD43" stop-opacity="0"/>
</linearGradient>
<linearGradient id="paint31_linear_122_130" x1="74.5" y1="309" x2="74.5" y2="620.381" gradientUnits="userSpaceOnUse">
<stop stop-color="#F7DD43"/>
<stop offset="1" stop-color="#F7DD43" stop-opacity="0"/>
</linearGradient>
<linearGradient id="paint32_linear_122_130" x1="74.5" y1="309" x2="74.5" y2="620.381" gradientUnits="userSpaceOnUse">
<stop stop-color="#F7DD43"/>
<stop offset="1" stop-color="#F7DD43" stop-opacity="0"/>
</linearGradient>
<linearGradient id="paint33_linear_122_130" x1="74.5" y1="309" x2="74.5" y2="620.381" gradientUnits="userSpaceOnUse">
<stop stop-color="#F7DD43"/>
<stop offset="1" stop-color="#F7DD43" stop-opacity="0"/>
</linearGradient>
<linearGradient id="paint34_linear_122_130" x1="74.5" y1="309" x2="74.5" y2="620.381" gradientUnits="userSpaceOnUse">
<stop stop-color="#F7DD43"/>
<stop offset="1" stop-color="#F7DD43" stop-opacity="0"/>
</linearGradient>
<linearGradient id="paint35_linear_122_130" x1="74.5" y1="309" x2="74.5" y2="620.381" gradientUnits="userSpaceOnUse">
<stop stop-color="#F7DD43"/>
<stop offset="1" stop-color="#F7DD43" stop-opacity="0"/>
</linearGradient>
<linearGradient id="paint36_linear_122_130" x1="74.5" y1="309" x2="74.5" y2="620.381" gradientUnits="userSpaceOnUse">
<stop stop-color="#F7DD43"/>
<stop offset="1" stop-color="#F7DD43" stop-opacity="0"/>
</linearGradient>
<linearGradient id="paint37_linear_122_130" x1="74.5" y1="309" x2="74.5" y2="620.381" gradientUnits="userSpaceOnUse">
<stop stop-color="#F7DD43"/>
<stop offset="1" stop-color="#F7DD43" stop-opacity="0"/>
</linearGradient>
<linearGradient id="paint38_linear_122_130" x1="74.5" y1="309" x2="74.5" y2="620.381" gradientUnits="userSpaceOnUse">
<stop stop-color="#F7DD43"/>
<stop offset="1" stop-color="#F7DD43" stop-opacity="0"/>
</linearGradient>
<linearGradient id="paint39_linear_122_130" x1="74.5" y1="309" x2="74.5" y2="620.381" gradientUnits="userSpaceOnUse">
<stop stop-color="#F7DD43"/>
<stop offset="1" stop-color="#F7DD43" stop-opacity="0"/>
</linearGradient>
<linearGradient id="paint40_linear_122_130" x1="74.5" y1="309" x2="74.5" y2="620.381" gradientUnits="userSpaceOnUse">
<stop stop-color="#F7DD43"/>
<stop offset="1" stop-color="#F7DD43" stop-opacity="0"/>
</linearGradient>
<linearGradient id="paint41_linear_122_130" x1="74.5" y1="309" x2="74.5" y2="620.381" gradientUnits="userSpaceOnUse">
<stop stop-color="#F7DD43"/>
<stop offset="1" stop-color="#F7DD43" stop-opacity="0"/>
</linearGradient>
<linearGradient id="paint42_linear_122_130" x1="74.5" y1="309" x2="74.5" y2="620.381" gradientUnits="userSpaceOnUse">
<stop stop-color="#F7DD43"/>
<stop offset="1" stop-color="#F7DD43" stop-opacity="0"/>
</linearGradient>
<linearGradient id="paint43_linear_122_130" x1="74.5" y1="309" x2="74.5" y2="620.381" gradientUnits="userSpaceOnUse">
<stop stop-color="#F7DD43"/>
<stop offset="1" stop-color="#F7DD43" stop-opacity="0"/>
</linearGradient>
<linearGradient id="paint44_linear_122_130" x1="74.5" y1="309" x2="74.5" y2="620.381" gradientUnits="userSpaceOnUse">
<stop stop-color="#F7DD43"/>
<stop offset="1" stop-color="#F7DD43" stop-opacity="0"/>
</linearGradient>
<linearGradient id="paint45_linear_122_130" x1="74.5" y1="309" x2="74.5" y2="620.381" gradientUnits="userSpaceOnUse">
<stop stop-color="#F7DD43"/>
<stop offset="1" stop-color="#F7DD43" stop-opacity="0"/>
</linearGradient>
<linearGradient id="paint46_linear_122_130" x1="74.5" y1="309" x2="74.5" y2="620.381" gradientUnits="userSpaceOnUse">
<stop stop-color="#F7DD43"/>
<stop offset="1" stop-color="#F7DD43" stop-opacity="0"/>
</linearGradient>
<linearGradient id="paint47_linear_122_130" x1="960.5" y1="9" x2="960.5" y2="307.818" gradientUnits="userSpaceOnUse">
<stop stop-color="#F7DD43"/>
<stop offset="1" stop-color="#F7DD43" stop-opacity="0"/>
</linearGradient>
<linearGradient id="paint48_linear_122_130" x1="960.5" y1="9" x2="960.5" y2="307.818" gradientUnits="userSpaceOnUse">
<stop stop-color="#F7DD43"/>
<stop offset="1" stop-color="#F7DD43" stop-opacity="0"/>
</linearGradient>
<linearGradient id="paint49_linear_122_130" x1="960.5" y1="9" x2="960.5" y2="307.818" gradientUnits="userSpaceOnUse">
<stop stop-color="#F7DD43"/>
<stop offset="1" stop-color="#F7DD43" stop-opacity="0"/>
</linearGradient>
<linearGradient id="paint50_linear_122_130" x1="960.5" y1="9" x2="960.5" y2="307.818" gradientUnits="userSpaceOnUse">
<stop stop-color="#F7DD43"/>
<stop offset="1" stop-color="#F7DD43" stop-opacity="0"/>
</linearGradient>
<linearGradient id="paint51_linear_122_130" x1="960.5" y1="9" x2="960.5" y2="307.818" gradientUnits="userSpaceOnUse">
<stop stop-color="#F7DD43"/>
<stop offset="1" stop-color="#F7DD43" stop-opacity="0"/>
</linearGradient>
<linearGradient id="paint52_linear_122_130" x1="960.5" y1="9" x2="960.5" y2="307.818" gradientUnits="userSpaceOnUse">
<stop stop-color="#F7DD43"/>
<stop offset="1" stop-color="#F7DD43" stop-opacity="0"/>
</linearGradient>
<linearGradient id="paint53_linear_122_130" x1="960.5" y1="9" x2="960.5" y2="307.818" gradientUnits="userSpaceOnUse">
<stop stop-color="#F7DD43"/>
<stop offset="1" stop-color="#F7DD43" stop-opacity="0"/>
</linearGradient>
<linearGradient id="paint54_linear_122_130" x1="960.5" y1="9" x2="960.5" y2="307.818" gradientUnits="userSpaceOnUse">
<stop stop-color="#F7DD43"/>
<stop offset="1" stop-color="#F7DD43" stop-opacity="0"/>
</linearGradient>
<linearGradient id="paint55_linear_122_130" x1="960.5" y1="9" x2="960.5" y2="307.818" gradientUnits="userSpaceOnUse">
<stop stop-color="#F7DD43"/>
<stop offset="1" stop-color="#F7DD43" stop-opacity="0"/>
</linearGradient>
<linearGradient id="paint56_linear_122_130" x1="960.5" y1="9" x2="960.5" y2="307.818" gradientUnits="userSpaceOnUse">
<stop stop-color="#F7DD43"/>
<stop offset="1" stop-color="#F7DD43" stop-opacity="0"/>
</linearGradient>
<linearGradient id="paint57_linear_122_130" x1="960.5" y1="9" x2="960.5" y2="307.818" gradientUnits="userSpaceOnUse">
<stop stop-color="#F7DD43"/>
<stop offset="1" stop-color="#F7DD43" stop-opacity="0"/>
</linearGradient>
<linearGradient id="paint58_linear_122_130" x1="960.5" y1="9" x2="960.5" y2="307.818" gradientUnits="userSpaceOnUse">
<stop stop-color="#F7DD43"/>
<stop offset="1" stop-color="#F7DD43" stop-opacity="0"/>
</linearGradient>
<linearGradient id="paint59_linear_122_130" x1="960.5" y1="9" x2="960.5" y2="307.818" gradientUnits="userSpaceOnUse">
<stop stop-color="#F7DD43"/>
<stop offset="1" stop-color="#F7DD43" stop-opacity="0"/>
</linearGradient>
<linearGradient id="paint60_linear_122_130" x1="960.5" y1="9" x2="960.5" y2="307.818" gradientUnits="userSpaceOnUse">
<stop stop-color="#F7DD43"/>
<stop offset="1" stop-color="#F7DD43" stop-opacity="0"/>
</linearGradient>
<linearGradient id="paint61_linear_122_130" x1="960.5" y1="9" x2="960.5" y2="307.818" gradientUnits="userSpaceOnUse">
<stop stop-color="#F7DD43"/>
<stop offset="1" stop-color="#F7DD43" stop-opacity="0"/>
</linearGradient>
<linearGradient id="paint62_linear_122_130" x1="960.5" y1="9" x2="960.5" y2="307.818" gradientUnits="userSpaceOnUse">
<stop stop-color="#F7DD43"/>
<stop offset="1" stop-color="#F7DD43" stop-opacity="0"/>
</linearGradient>
<linearGradient id="paint63_linear_122_130" x1="960.5" y1="9" x2="960.5" y2="307.818" gradientUnits="userSpaceOnUse">
<stop stop-color="#F7DD43"/>
<stop offset="1" stop-color="#F7DD43" stop-opacity="0"/>
</linearGradient>
<linearGradient id="paint64_linear_122_130" x1="960.5" y1="9" x2="960.5" y2="307.818" gradientUnits="userSpaceOnUse">
<stop stop-color="#F7DD43"/>
<stop offset="1" stop-color="#F7DD43" stop-opacity="0"/>
</linearGradient>
<linearGradient id="paint65_linear_122_130" x1="960.5" y1="9" x2="960.5" y2="307.818" gradientUnits="userSpaceOnUse">
<stop stop-color="#F7DD43"/>
<stop offset="1" stop-color="#F7DD43" stop-opacity="0"/>
</linearGradient>
<linearGradient id="paint66_linear_122_130" x1="960.5" y1="9" x2="960.5" y2="307.818" gradientUnits="userSpaceOnUse">
<stop stop-color="#F7DD43"/>
<stop offset="1" stop-color="#F7DD43" stop-opacity="0"/>
</linearGradient>
<linearGradient id="paint67_linear_122_130" x1="960.5" y1="9" x2="960.5" y2="307.818" gradientUnits="userSpaceOnUse">
<stop stop-color="#F7DD43"/>
<stop offset="1" stop-color="#F7DD43" stop-opacity="0"/>
</linearGradient>
<linearGradient id="paint68_linear_122_130" x1="960.5" y1="9" x2="960.5" y2="307.818" gradientUnits="userSpaceOnUse">
<stop stop-color="#F7DD43"/>
<stop offset="1" stop-color="#F7DD43" stop-opacity="0"/>
</linearGradient>
<linearGradient id="paint69_linear_122_130" x1="960.5" y1="9" x2="960.5" y2="307.818" gradientUnits="userSpaceOnUse">
<stop stop-color="#F7DD43"/>
<stop offset="1" stop-color="#F7DD43" stop-opacity="0"/>
</linearGradient>
<linearGradient id="paint70_linear_122_130" x1="960.5" y1="9" x2="960.5" y2="307.818" gradientUnits="userSpaceOnUse">
<stop stop-color="#F7DD43"/>
<stop offset="1" stop-color="#F7DD43" stop-opacity="0"/>
</linearGradient>
<linearGradient id="paint71_linear_122_130" x1="960.5" y1="9" x2="960.5" y2="307.818" gradientUnits="userSpaceOnUse">
<stop stop-color="#F7DD43"/>
<stop offset="1" stop-color="#F7DD43" stop-opacity="0"/>
</linearGradient>
<linearGradient id="paint72_linear_122_130" x1="960.5" y1="9" x2="960.5" y2="307.818" gradientUnits="userSpaceOnUse">
<stop stop-color="#F7DD43"/>
<stop offset="1" stop-color="#F7DD43" stop-opacity="0"/>
</linearGradient>
<linearGradient id="paint73_linear_122_130" x1="960.5" y1="9" x2="960.5" y2="307.818" gradientUnits="userSpaceOnUse">
<stop stop-color="#F7DD43"/>
<stop offset="1" stop-color="#F7DD43" stop-opacity="0"/>
</linearGradient>
<linearGradient id="paint74_linear_122_130" x1="960.5" y1="9" x2="960.5" y2="307.818" gradientUnits="userSpaceOnUse">
<stop stop-color="#F7DD43"/>
<stop offset="1" stop-color="#F7DD43" stop-opacity="0"/>
</linearGradient>
<linearGradient id="paint75_linear_122_130" x1="960.5" y1="9" x2="960.5" y2="307.818" gradientUnits="userSpaceOnUse">
<stop stop-color="#F7DD43"/>
<stop offset="1" stop-color="#F7DD43" stop-opacity="0"/>
</linearGradient>
<linearGradient id="paint76_linear_122_130" x1="960.5" y1="9" x2="960.5" y2="307.818" gradientUnits="userSpaceOnUse">
<stop stop-color="#F7DD43"/>
<stop offset="1" stop-color="#F7DD43" stop-opacity="0"/>
</linearGradient>
<linearGradient id="paint77_linear_122_130" x1="960.5" y1="9" x2="960.5" y2="307.818" gradientUnits="userSpaceOnUse">
<stop stop-color="#F7DD43"/>
<stop offset="1" stop-color="#F7DD43" stop-opacity="0"/>
</linearGradient>
<linearGradient id="paint78_linear_122_130" x1="960.5" y1="9" x2="960.5" y2="307.818" gradientUnits="userSpaceOnUse">
<stop stop-color="#F7DD43"/>
<stop offset="1" stop-color="#F7DD43" stop-opacity="0"/>
</linearGradient>
<linearGradient id="paint79_linear_122_130" x1="960.5" y1="9" x2="960.5" y2="307.818" gradientUnits="userSpaceOnUse">
<stop stop-color="#F7DD43"/>
<stop offset="1" stop-color="#F7DD43" stop-opacity="0"/>
</linearGradient>
<linearGradient id="paint80_linear_122_130" x1="960.5" y1="9" x2="960.5" y2="307.818" gradientUnits="userSpaceOnUse">
<stop stop-color="#F7DD43"/>
<stop offset="1" stop-color="#F7DD43" stop-opacity="0"/>
</linearGradient>
<linearGradient id="paint81_linear_122_130" x1="960.5" y1="9" x2="960.5" y2="307.818" gradientUnits="userSpaceOnUse">
<stop stop-color="#F7DD43"/>
<stop offset="1" stop-color="#F7DD43" stop-opacity="0"/>
</linearGradient>
<linearGradient id="paint82_linear_122_130" x1="960.5" y1="9" x2="960.5" y2="307.818" gradientUnits="userSpaceOnUse">
<stop stop-color="#F7DD43"/>
<stop offset="1" stop-color="#F7DD43" stop-opacity="0"/>
</linearGradient>
<linearGradient id="paint83_linear_122_130" x1="960.5" y1="9" x2="960.5" y2="307.818" gradientUnits="userSpaceOnUse">
<stop stop-color="#F7DD43"/>
<stop offset="1" stop-color="#F7DD43" stop-opacity="0"/>
</linearGradient>
<linearGradient id="paint84_linear_122_130" x1="960.5" y1="9" x2="960.5" y2="307.818" gradientUnits="userSpaceOnUse">
<stop stop-color="#F7DD43"/>
<stop offset="1" stop-color="#F7DD43" stop-opacity="0"/>
</linearGradient>
<linearGradient id="paint85_linear_122_130" x1="960.5" y1="9" x2="960.5" y2="307.818" gradientUnits="userSpaceOnUse">
<stop stop-color="#F7DD43"/>
<stop offset="1" stop-color="#F7DD43" stop-opacity="0"/>
</linearGradient>
<linearGradient id="paint86_linear_122_130" x1="960.5" y1="9" x2="960.5" y2="307.818" gradientUnits="userSpaceOnUse">
<stop stop-color="#F7DD43"/>
<stop offset="1" stop-color="#F7DD43" stop-opacity="0"/>
</linearGradient>
<linearGradient id="paint87_linear_122_130" x1="960.5" y1="9" x2="960.5" y2="307.818" gradientUnits="userSpaceOnUse">
<stop stop-color="#F7DD43"/>
<stop offset="1" stop-color="#F7DD43" stop-opacity="0"/>
</linearGradient>
<linearGradient id="paint88_linear_122_130" x1="960.5" y1="9" x2="960.5" y2="307.818" gradientUnits="userSpaceOnUse">
<stop stop-color="#F7DD43"/>
<stop offset="1" stop-color="#F7DD43" stop-opacity="0"/>
</linearGradient>
<linearGradient id="paint89_linear_122_130" x1="960.5" y1="9" x2="960.5" y2="307.818" gradientUnits="userSpaceOnUse">
<stop stop-color="#F7DD43"/>
<stop offset="1" stop-color="#F7DD43" stop-opacity="0"/>
</linearGradient>
<linearGradient id="paint90_linear_122_130" x1="960.5" y1="9" x2="960.5" y2="307.818" gradientUnits="userSpaceOnUse">
<stop stop-color="#F7DD43"/>
<stop offset="1" stop-color="#F7DD43" stop-opacity="0"/>
</linearGradient>
<linearGradient id="paint91_linear_122_130" x1="960.5" y1="9" x2="960.5" y2="307.818" gradientUnits="userSpaceOnUse">
<stop stop-color="#F7DD43"/>
<stop offset="1" stop-color="#F7DD43" stop-opacity="0"/>
</linearGradient>
<linearGradient id="paint92_linear_122_130" x1="960.5" y1="9" x2="960.5" y2="307.818" gradientUnits="userSpaceOnUse">
<stop stop-color="#F7DD43"/>
<stop offset="1" stop-color="#F7DD43" stop-opacity="0"/>
</linearGradient>
<linearGradient id="paint93_linear_122_130" x1="960.5" y1="9" x2="960.5" y2="307.818" gradientUnits="userSpaceOnUse">
<stop stop-color="#F7DD43"/>
<stop offset="1" stop-color="#F7DD43" stop-opacity="0"/>
</linearGradient>
<clipPath id="clip0_122_130">
<rect width="1024" height="753" fill="white"/>
</clipPath>
</defs>
</svg>
